<?xml version="1.0" standalone="no"?><!DOCTYPE svg PUBLIC "-//W3C//DTD SVG 1.1//EN" "http://www.w3.org/Graphics/SVG/1.1/DTD/svg11.dtd"><svg t="1618504956174" class="icon" viewBox="0 0 1024 1024" version="1.1" xmlns="http://www.w3.org/2000/svg" p-id="24195" xmlns:xlink="http://www.w3.org/1999/xlink" width="200" height="200"><defs><style type="text/css"></style></defs><path d="M512 1024C346.843429 1024 36.571429 752.201143 36.571429 475.428571a475.428571 475.428571 0 0 1 950.857142 0c0 276.772571-310.272 548.571429-475.428571 548.571429z m0-73.142857c34.084571 0 140.141714-54.857143 222.793143-127.268572C847.213714 725.138286 914.285714 605.915429 914.285714 475.428571a402.285714 402.285714 0 0 0-804.571428 0c0 130.486857 67.072 249.709714 179.492571 348.16C371.858286 896 477.915429 950.857143 512 950.857143z m0-365.714286a146.285714 146.285714 0 1 1 0-292.571428 146.285714 146.285714 0 0 1 0 292.571428z m0-73.142857a73.142857 73.142857 0 1 0 0-146.285714 73.142857 73.142857 0 0 0 0 146.285714z" p-id="24196" fill="#cdcdcd"></path></svg>