<?xml version="1.0" standalone="no"?><!DOCTYPE svg PUBLIC "-//W3C//DTD SVG 1.1//EN" "http://www.w3.org/Graphics/SVG/1.1/DTD/svg11.dtd"><svg t="1618505180368" class="icon" viewBox="0 0 1024 1024" version="1.1" xmlns="http://www.w3.org/2000/svg" p-id="26874" xmlns:xlink="http://www.w3.org/1999/xlink" width="200" height="200"><defs><style type="text/css"></style></defs><path d="M512 613.052632c-168.421053 0-303.157895-134.736842-303.157895-303.157895S343.578947 6.736842 512 6.736842s303.157895 134.736842 303.157895 303.157895-134.736842 303.157895-303.157895 303.157895z m0-538.947369c-128 0-235.789474 107.789474-235.789474 235.789474s107.789474 235.789474 235.789474 235.789474 235.789474-107.789474 235.789474-235.789474-107.789474-235.789474-235.789474-235.789474z" p-id="26875" fill="#dbdbdb"></path><path d="M916.210526 1017.263158c-20.210526 0-33.684211-13.473684-33.68421-33.684211 0-202.105263-168.421053-370.526316-370.526316-370.526315S141.473684 781.473684 141.473684 983.578947c0 20.210526-13.473684 33.684211-33.68421 33.684211S74.105263 1003.789474 74.105263 983.578947C74.105263 741.052632 269.473684 545.684211 512 545.684211S949.894737 741.052632 949.894737 983.578947c0 20.210526-13.473684 33.684211-33.684211 33.684211z" p-id="26876" fill="#dbdbdb"></path></svg>